<svg version="1.0" xmlns="http://www.w3.org/2000/svg" width="133.333" height="133.333" viewBox="0 0 100 100"><path d="M38 1.6C29.1 4 22 8.1 14.9 15-5.7 35.3-4.6 67.9 17.2 87.5c12.5 11.2 33.1 15.3 49 9.7 3.1-1.1 5.9-1.8 6.2-1.5.3.4.6.1.6-.6 0-.8.7-1 2.1-.6 1.6.5 1.9.4 1.4-.6-.6-.9-.2-1.1 1.3-.7 1.4.4 2 .2 1.5-.5-.4-.7 0-.8 1.1-.4.9.4 1.5.3 1.1-.2-.3-.5.8-1.5 2.4-2.2 1.6-.7 2.7-1.8 2.4-2.3-.4-.5.1-.7 1-.3 1.2.4 1.4.2 1-1-.5-1.2-.3-1.4.7-.8.9.5 1.1.4.6-.4-.4-.6.3-2.5 1.5-4.3 1.3-1.7 1.8-2.9 1.3-2.5-.5.3.3-2 1.8-5.1 4.3-8.9 6.1-17.5 5.5-26.2C98.1 26.7 85.2 9.6 66.2 2.9 58.9.2 45.5-.4 38 1.6zm21.9 1.5 6.5 1.2L62.9 6C61 7 58.8 9 58 10.4c-1.2 2.4-1.9 2.6-7.9 2.6-5.9 0-6.7-.2-7.6-2.2-.6-1.2-2.5-3.2-4.3-4.5l-3.3-2.2 4.3-.9c6-1.4 13.1-1.4 20.7-.1zM25 9.7c-.1 1.8-1.8 3.4-4.1 3.8-2.3.4-2.3.3.6-2C24.8 8.8 25 8.7 25 9.7zm56 3.7c0 .2-1.1.1-2.4-.1-1.3-.3-2.6-1.4-2.9-2.4-.5-1.8-.4-1.8 2.4.2 1.6 1.1 2.9 2.2 2.9 2.3zM12.4 48.7c0 15.9-.2 29.2-.3 29.8-.2 1.7-4.7-5.8-7.1-12-2-4.9-2.4-7.9-2.4-16.5 0-9 .4-11.5 2.6-17.2C7.3 27.6 11.6 20 12.5 20c0 0 0 12.9-.1 28.7zm80.7-19.5c5 9.7 6.2 23.5 2.8 34.3-1.9 6.3-3.8 9.2-3.4 5.3.2-1.3-.6-4.2-1.8-6.3-1.8-3.6-2-6-2.1-22.3-.2-19.8-.1-19.9 4.5-11zm-62.4 60c.2-.6 1-.9 1.5-.5.6.3 6.2.7 12.3.7 7.8.1 11.7.5 12.8 1.4.9.8 3.5 2 5.9 2.6l4.2 1.3-3.9 1.4c-2.4.8-8 1.3-14 1.3-8 0-11.2-.5-16-2.4-6.6-2.5-13-6.8-8.8-5.7 1.3.3 2.6.1 2.9-.5.4-.6 1-.5 1.6.3.7 1.1 1.1 1.1 1.5.1z"/></svg>