<svg width="137" height="70" viewBox="0 0 137 70" fill="none" xmlns="http://www.w3.org/2000/svg">
<path d="M42.4197 52.8364C41.1433 49.1808 38.5166 47.3526 34.5396 47.3518H33.2848V69.9011H34.5396C37.6135 69.9011 39.8823 68.6528 41.3461 66.1561C42.5793 64.0251 43.1959 61.3135 43.1959 58.0213C43.1929 56.063 42.9342 54.3347 42.4197 52.8364Z" fill="white"/>
<path d="M20.8838 53.1068C22.1617 56.7624 24.788 58.5902 28.7629 58.5902H30.0177V36.041H28.7629C25.689 36.041 23.4201 37.2893 21.9564 39.786C20.7268 41.9162 20.1117 44.6278 20.111 47.9207C20.111 49.8768 20.3686 51.6054 20.8838 53.1068Z" fill="white"/>
<path d="M0 0.0283203H16.6978V6.00044H5.99408V8.9865H14.8864V14.6532H5.99408V17.6732H16.6978V23.6453H0V0.0283203Z" fill="white"/>
<path d="M25.0951 0H46.7001L35.8976 24.126L25.0951 0ZM35.8976 21.14L44.8228 1.2555H27.0053L35.8976 21.14Z" fill="white"/>
<path d="M55.3289 0.0283203H72.0267V6.00044H61.323V8.9865H70.2153V14.6532H61.323V17.6732H72.0267V23.6453H55.3289V0.0283203Z" fill="white"/>
<path d="M82.3023 23.6114V0H83.5867L99.5929 16.0501V0H100.811V23.617L82.3023 23.6114Z" fill="white"/>
<path d="M118.3 23.6453V6.00044H109.638V0.0283203H128.147V6.00044H119.485V23.6453H118.3Z" fill="white"/>
<path d="M9.8463 40.7474C11.2954 40.7474 12.4481 40.9736 13.3044 41.426C14.2883 41.9205 15.1146 42.6941 15.6864 43.6559C16.2581 44.6176 16.5515 45.7276 16.532 46.8552C16.538 47.9422 16.2408 49.0081 15.6757 49.9261C15.1015 50.8676 14.2944 51.6347 13.3374 52.1487C14.5257 52.5805 15.5669 53.3585 16.3344 54.3882C17.131 55.4065 17.5615 56.6772 17.553 57.9851C17.5614 59.128 17.2591 60.2506 16.6802 61.2256C16.1141 62.194 15.3141 62.9948 14.3583 63.55C13.8509 63.8307 13.3077 64.0364 12.7445 64.1608C12.1517 64.2965 11.3613 64.3644 10.3733 64.3644H0.229431V40.7474H9.8463Z" fill="white"/>
<path d="M48.4621 62.6508C46.7385 61.1013 45.8877 58.7769 45.9097 55.6777H51.278C51.2561 56.9671 51.6293 57.9512 52.3978 58.6298C53.1662 59.3085 54.2421 59.6478 55.6254 59.6478C56.7671 59.6478 57.6673 59.4555 58.326 59.071C58.9847 58.6864 59.314 58.0982 59.314 57.3065C59.314 56.6504 58.9792 56.1754 58.3095 55.8813C57.67 55.5967 57.0017 55.3861 56.317 55.2536C55.6583 55.1291 55.2521 55.0537 55.0984 55.0273C53.6063 54.743 52.1408 54.3267 50.7181 53.7831C49.5237 53.3256 48.4594 52.5673 47.6223 51.5775C46.7879 50.5822 46.3708 49.2701 46.3708 47.6414C46.3708 46.0126 46.7879 44.627 47.6223 43.4846C48.4566 42.3422 49.5709 41.4883 50.9651 40.9227C52.42 40.3457 53.9677 40.0579 55.5266 40.0744C57.5246 40.0744 59.2536 40.459 60.7137 41.2281C62.1738 41.9972 63.321 43.1623 64.1554 44.7232C64.5426 45.3833 64.7999 46.1154 64.9129 46.8779C64.9994 47.5472 65.0434 48.2216 65.0446 48.8969H59.6763C59.6763 47.6753 59.3579 46.7761 58.7212 46.1992C58.0845 45.6224 57.0964 45.3339 55.7571 45.3339C54.6812 45.3339 53.8469 45.5262 53.2541 45.9108C52.6613 46.2954 52.3648 46.8157 52.3648 47.4717C52.3648 48.1956 52.7601 48.7272 53.5505 49.0665C54.5215 49.4619 55.5244 49.7685 56.5475 49.9827C58.5236 50.3899 60.066 50.7801 61.1748 51.1534C62.2926 51.533 63.2889 52.2193 64.0566 53.1384C64.869 54.0885 65.2752 55.4232 65.2752 57.1425C65.2752 58.7712 64.836 60.1738 63.9578 61.3501C63.0795 62.5264 61.9213 63.4256 60.4832 64.0477C59.0063 64.6777 57.4214 64.995 55.823 64.9809C52.6393 64.9771 50.1857 64.2004 48.4621 62.6508Z" fill="white"/>
<path d="M78.7783 64.3644V46.7195H70.1165V40.7474H88.6257V46.7195H79.964V64.3644H78.7783Z" fill="white"/>
<path d="M94.8503 40.7474H111.548V46.7195H100.844V49.7055H109.737V55.3723H100.844V58.3923H111.548V64.3644H94.8503V40.7474Z" fill="white"/>
<path d="M136.281 64.3644H118.661V40.7474H127.586C129.496 40.7474 131.055 41.098 132.263 41.7993C133.417 42.4459 134.374 43.4089 135.029 44.5817C135.691 45.7684 136.032 47.1157 136.017 48.484C136.033 50.2019 135.475 51.8732 134.436 53.2176C133.441 54.568 132.04 55.5405 130.451 55.9831L136.281 64.3644ZM119.879 42.8173V54.999H128.344L119.879 42.8173ZM119.879 63.1089H133.975L129.167 56.2206L128.146 56.2545H119.879V63.1089ZM120.736 42.0029L129.694 54.8972C131.132 54.6009 132.425 53.7969 133.35 52.6237C134.3 51.4685 134.815 49.9986 134.799 48.484C134.812 47.29 134.504 46.1156 133.91 45.0907C133.317 44.0732 132.447 43.2587 131.407 42.7494C130.44 42.2517 129.178 42.0029 127.619 42.0029H120.736Z" fill="white"/>
</svg>
