<?xml version="1.0" standalone="no"?>
<!DOCTYPE svg PUBLIC "-//W3C//DTD SVG 20010904//EN"
 "http://www.w3.org/TR/2001/REC-SVG-20010904/DTD/svg10.dtd">
<svg version="1.0" xmlns="http://www.w3.org/2000/svg"
 width="100.000000pt" height="100.000000pt" viewBox="0 0 100.000000 100.000000"
 preserveAspectRatio="xMidYMid meet">
<metadata>
Created by potrace 1.14, written by Peter Selinger 2001-2017
</metadata>
<g transform="translate(0.000000,100.000000) scale(0.100000,-0.100000)"
fill="#000000" stroke="none">
<path d="M380 984 c-89 -24 -160 -65 -231 -134 -206 -203 -195 -529 23 -725
125 -112 331 -153 490 -97 31 11 59 18 62 15 3 -4 6 -1 6 6 0 8 7 10 21 6 16
-5 19 -4 14 6 -6 9 -2 11 13 7 14 -4 20 -2 15 5 -4 7 0 8 11 4 9 -4 15 -3 11
2 -3 5 8 15 24 22 16 7 27 18 24 23 -4 5 1 7 10 3 12 -4 14 -2 10 10 -5 12 -3
14 7 8 9 -5 11 -4 6 4 -4 6 3 25 15 43 13 17 18 29 13 25 -5 -3 3 20 18 51 43
89 61 175 55 262 -16 203 -145 374 -335 441 -73 27 -207 33 -282 13z m219 -15
l65 -12 -35 -17 c-19 -10 -41 -30 -49 -44 -12 -24 -19 -26 -79 -26 -59 0 -67
2 -76 22 -6 12 -25 32 -43 45 l-33 22 43 9 c60 14 131 14 207 1z m-349 -66
c-1 -18 -18 -34 -41 -38 -23 -4 -23 -3 6 20 33 27 35 28 35 18z m560 -37 c0
-2 -11 -1 -24 1 -13 3 -26 14 -29 24 -5 18 -4 18 24 -2 16 -11 29 -22 29 -23z
m-686 -353 c0 -159 -2 -292 -3 -298 -2 -17 -47 58 -71 120 -20 49 -24 79 -24
165 0 90 4 115 26 172 21 52 64 128 73 128 0 0 0 -129 -1 -287z m807 195 c50
-97 62 -235 28 -343 -19 -63 -38 -92 -34 -53 2 13 -6 42 -18 63 -18 36 -20 60
-21 223 -2 198 -1 199 45 110z m-624 -600 c2 6 10 9 15 5 6 -3 62 -7 123 -7
78 -1 117 -5 128 -14 9 -8 35 -20 59 -26 l42 -13 -39 -14 c-24 -8 -80 -13
-140 -13 -80 0 -112 5 -160 24 -66 25 -130 68 -88 57 13 -3 26 -1 29 5 4 6 10
5 16 -3 7 -11 11 -11 15 -1z"/>
</g>
</svg>
