<svg aria-hidden="true" style="position:absolute;width:0;height:0;overflow:hidden" xmlns="http://www.w3.org/2000/svg">
  <defs>

    <symbol id="close" viewBox="0 0 32 32">
      <path d="M1.646 32a1.646 1.646 0 0 1-1.163-2.811L29.19.482a1.646 1.646 0 1 1 2.328 2.329L2.811 31.517A1.65 1.65 0 0 1 1.646 32z"/>
      <path d="M30.355 32c-.421 0-.843-.16-1.163-.483L.483 2.811A1.647 1.647 0 0 1 2.812.482l28.707 28.707A1.646 1.646 0 0 1 30.356 32z"/>
    </symbol>
  
    <symbol id="ticket" viewBox="0 0 45 32">
      <path d="M5.02 1.569H0v30.118h5.02V1.569zM17.645 1.569h-5.02v30.118h5.02V1.569zM25.25 1.569h-5.019v30.118h5.019V1.569zM45.177 1.569h-7.453v30.118h7.453V1.569zM10.039 1.569H7.605v30.118h2.434V1.569zM30.118 1.569h-2.434v30.118h2.434V1.569zM35.137 1.569h-2.434v30.118h2.434V1.569z"/>
    </symbol>

    <symbol id="Vector" viewBox="0 0 21 32">
      <path d="M10.667 0C4.785 0 0 4.99 0 11.123 0 18.832 10.677 32 10.677 32s10.656-13.547 10.656-20.877C21.333 4.99 16.548 0 10.666 0zm3.218 14.38c-.887.925-2.053 1.388-3.218 1.388s-2.331-.463-3.218-1.388c-1.775-1.85-1.775-4.861 0-6.712.859-.896 2.002-1.39 3.218-1.39s2.359.494 3.218 1.39c1.775 1.851 1.775 4.861 0 6.712z"/>
    </symbol>
      
  </defs>
</svg>

